#!OML:ASF I:\Actors\actors\Patient Classification 2\Patient 1\Session 1\actor1.ASF
:FULLY-SPECIFIED
:DEGREES
160
root -0.491168 18.7186 5.60029 2.77128 -10.3691 0.852301
lowerback 4.67693 -6.93532 3.55668
upperback -1.08394 -8.91578 3.37073
thorax -3.7252 -4.47306 2.21827
lowerneck -15.509 -3.2556 -4.72942
upperneck 30.0551 -3.52376 -0.172102
head 12.6558 -2.20417 0.189396
rclavicle 3.0911e-014 -1.74931e-014
rhumerus -46.0648 21.5878 -83.2445
rradius 94.6999
rwrist -23.1625
rhand -12.5687 -34.0599
rfingers 7.12502
rthumb 13.5089 -63.6018
lclavicle 3.0911e-014 -1.74931e-014
lhumerus 26.3825 -48.2548 77.0785
lradius 61.5606
lwrist 25.1341
lhand -4.23621 -13.8694
lfingers 7.12502
lthumb 21.5271 14.9542
rfemur 0 0 0
rtibia 0
rfoot 0 0
rtoes 0
lfemur -2.95548 0.679479 -16.0864
ltibia 19.6931
lfoot -23.2317 18.7302
ltoes -56.7508
161
root -0.483154 18.7198 5.60988 2.74691 -10.7779 1.11431
lowerback 4.88624 -6.93393 3.68156
upperback -1.06162 -8.88968 3.48991
thorax -3.81943 -4.46062 2.29818
lowerneck -15.3908 -3.206 -4.78743
upperneck 29.9356 -3.32703 -0.533893
head 12.573 -2.1711 0.0948444
rclavicle -5.52621e-014 -1.59028e-014
rhumerus -46.3071 21.6687 -82.3817
rradius 98.2872
rwrist -28.8433
rhand -10.9569 -33.4617
rfingers 7.12502
rthumb 15.062 -62.8937
lclavicle -5.52621e-014 -1.59028e-014
lhumerus 27.788 -48.8269 75.5035
lradius 62.4038
lwrist 26.426
lhand -2.93322 -11.8307
lfingers 7.12502
lthumb 22.7781 16.8445
rfemur 0 0 0
rtibia 0
rfoot 0 0
rtoes 0
lfemur -2.87341 0.652979 -16.4593
ltibia 19.6536
lfoot -23.4423 19.0578
ltoes -56.6632
162
root -0.474087 18.7209 5.62598 2.82607 -11.0632 1.25644
lowerback 4.91177 -6.93815 4.02299
upperback -1.05511 -8.86661 3.62027
thorax -3.85871 -4.45441 2.25202
lowerneck -15.1898 -3.17542 -4.8246
upperneck 29.8014 -3.15571 -0.945382
head 12.4675 -2.15292 -0.0240756
rclavicle 1.35174e-014 -2.70347e-014
rhumerus -46.5295 21.6999 -81.6405
rradius 101.551
rwrist -33.3554
rhand -9.24525 -33.1445
rfingers 7.12502
rthumb 16.7104 -62.4453
lclavicle 1.35174e-014 -2.70347e-014
lhumerus 29.2599 -49.4055 73.8834
lradius 63.372
lwrist 27.6794
lhand -1.48949 -9.79314
lfingers 7.12502
lthumb 24.163 18.7049
rfemur 0 0 0
rtibia 0
rfoot 0 0
rtoes 0
lfemur -2.88446 0.815642 -16.6779
ltibia 19.6222
lfoot -23.509 19.1531
ltoes -56.6763
163
root -0.465892 18.7241 5.65017 3.09898 -11.2464 1.05968
lowerback 4.65473 -6.90583 4.72796
upperback -1.02632 -8.78961 3.86804
thorax -3.75327 -4.42784 2.0886
lowerneck -15.0346 -3.14656 -4.67071
upperneck 29.6323 -2.95839 -1.61616
head 12.3501 -2.13363 -0.269352
rclavicle 8.09054e-014 3.02153e-014
rhumerus -46.5891 21.7136 -80.96
rradius 104.256
rwrist -35.6253
rhand -7.58353 -32.7552
rfingers 7.12502
rthumb 18.3095 -61.9135
lclavicle 8.09054e-014 3.02153e-014
lhumerus 30.9638 -50.0645 72.1222
lradius 64.3631
lwrist 28.988
lhand -0.191041 -7.91101
lfingers 7.12502
lthumb 25.4074 20.4159
rfemur 0 0 0
rtibia 0
rfoot 0 0
rtoes 0
lfemur -2.98832 1.16266 -16.4964
ltibia 19.5293
lfoot -23.3904 19.0674
ltoes -56.7693
164
root -0.456993 18.7272 5.66357 3.19366 -11.4575 1.10682
lowerback 4.68892 -6.82438 5.11821
upperback -0.97819 -8.64909 4.0859
thorax -3.74628 -4.36296 2.09293
lowerneck -14.9751 -3.12497 -4.46783
upperneck 29.4342 -2.74376 -2.40525
head 12.2406 -2.11469 -0.565008
rclavicle 3.73715e-014 -2.22639e-014
rhumerus -46.3668 21.8782 -80.3815
rradius 106.257
rwrist -35.815
rhand -6.21898 -31.6896
rfingers 7.12502
rthumb 19.6218 -60.7194
lclavicle 3.73715e-014 -2.22639e-014
lhumerus 32.9882 -50.8132 69.9912
lradius 65.3497
lwrist 30.5372
lhand 0.697769 -6.31399
lfingers 7.12502
lthumb 26.2585 21.889
rfemur 0 0 0
rtibia 0
rfoot 0 0
rtoes 0
lfemur -3.03948 1.23964 -16.604
ltibia 19.5393
lfoot -23.3817 19.1819
ltoes -56.7933
165
root -0.44573 18.7288 5.65768 3.02244 -11.7024 1.65959
lowerback 5.13423 -6.70748 4.90153
upperback -0.936579 -8.46925 4.20585
thorax -3.90096 -4.26769 2.36876
lowerneck -14.9346 -3.14096 -4.52367
upperneck 29.2639 -2.57981 -2.97051
head 12.1591 -2.11746 -0.739907
rclavicle 1.5704e-014 5.08889e-014
rhumerus -45.922 22.1953 -79.9314
rradius 107.732
rwrist -35.0635
rhand -5.30831 -29.786
rfingers 7.12502
rthumb 20.4972 -58.724
lclavicle 1.5704e-014 5.08889e-014
lhumerus 35.2129 -51.5447 67.6551
lradius 66.4062
lwrist 32.2317
lhand 1.59417 -4.77177
lfingers 7.12502
lthumb 27.1164 23.3005
rfemur 0 0 0
rtibia 0
rfoot 0 0
rtoes 0
lfemur -3.00451 1.11929 -17.2746
ltibia 19.5731
lfoot -23.4736 19.4521
ltoes -56.7349
166
root -0.434517 18.7321 5.68287 3.32794 -11.6216 1.30096
lowerback 4.70043 -6.66207 5.899
upperback -0.849196 -8.37623 4.50974
thorax -3.6659 -4.23611 2.07964
lowerneck -14.9295 -3.18963 -4.70579
upperneck 29.2185 -2.47856 -3.36282
head 12.1415 -2.14177 -0.840861
rclavicle -8.38871e-014 6.36111e-015
rhumerus -45.2909 22.4817 -79.7022
rradius 109.003
rwrist -34.1867
rhand -5.36281 -30.1279
rfingers 7.12502
rthumb 20.4448 -59.0716
lclavicle -8.38871e-014 6.36111e-015
lhumerus 37.359 -52.2703 65.3625
lradius 67.5962
lwrist 33.6898
lhand 2.72383 -3.20725
lfingers 7.12502
lthumb 28.1966 24.6918
rfemur 0 0 0
rtibia 0
rfoot 0 0
rtoes 0
lfemur -3.19666 1.53015 -16.8871
ltibia 19.5815
lfoot -23.207 19.1081
ltoes -56.8712
167
root -0.425016 18.734 5.68799 3.39427 -11.666 1.36739
lowerback 4.70208 -6.57295 6.23864
upperback -0.799082 -8.23136 4.77552
thorax -3.6219 -4.16716 2.15489
lowerneck -14.8656 -3.24935 -4.9184
upperneck 29.1314 -2.37193 -3.81896
head 12.0963 -2.17416 -0.957665
rclavicle 3.45885e-014 -9.54166e-015
rhumerus -44.3231 22.8026 -79.5965
rradius 109.828
rwrist -33.4564
rhand -6.0558 -30.3833
rfingers 7.12502
rthumb 19.7787 -59.397
lclavicle 3.45885e-014 -9.54166e-015
lhumerus 39.3431 -52.8927 63.2307
lradius 68.794
lwrist 34.7256
lhand 3.70211 -1.79551
lfingers 7.12502
lthumb 29.1313 25.9456
rfemur 0 0 0
rtibia 0
rfoot 0 0
rtoes 0
lfemur -3.29843 1.85251 -16.9618
ltibia 19.6055
lfoot -22.996 18.9209
ltoes -56.9563
168
root -0.415619 18.7346 5.68207 3.27896 -11.7418 1.7232
lowerback 4.93411 -6.47981 6.14921
upperback -0.745408 -8.08674 5.02105
thorax -3.64568 -4.09145 2.46522
lowerneck -14.7501 -3.30252 -5.23994
upperneck 28.9867 -2.25006 -4.21752
head 12.022 -2.20205 -1.02948
rclavicle -2.14687e-014 -1.11319e-014
rhumerus -42.9327 23.0918 -79.4824
rradius 110.181
rwrist -32.6423
rhand -6.91273 -30.4799
rfingers 7.12502
rthumb 18.9547 -59.5763
lclavicle -2.14687e-014 -1.11319e-014
lhumerus 41.3763 -53.3879 61.0586
lradius 69.9273
lwrist 35.6033
lhand 4.35631 -0.74145
lfingers 7.12502
lthumb 29.7558 26.8898
rfemur 0 0 0
rtibia 0
rfoot 0 0
rtoes 0
lfemur -3.3667 1.95574 -17.3641
ltibia 19.752
lfoot -22.9476 18.8793
ltoes -56.9861
169
root -0.406644 18.7357 5.68645 3.25257 -11.6541 1.89616
lowerback 4.89922 -6.43921 6.43661
upperback -0.691178 -8.01563 5.19799
thorax -3.58342 -4.05845 2.47924
lowerneck -14.5995 -3.33626 -5.54176
upperneck 28.9118 -2.16982 -4.41662
head 11.9694 -2.22154 -1.03667
rclavicle -9.58142e-014 3.97569e-014
rhumerus -41.2909 23.0975 -79.6258
rradius 109.974
rwrist -31.2253
rhand -8.03584 -30.1841
rfingers 7.12502
rthumb 17.8744 -59.3827
lclavicle -9.58142e-014 3.97569e-014
lhumerus 43.4808 -53.9397 58.6359
lradius 71.0454
lwrist 36.5238
lhand 4.39929 -0.0635197
lfingers 7.12502
lthumb 29.7968 27.5603
rfemur 0 0 0
rtibia 0
rfoot 0 0
rtoes 0
lfemur -3.45624 2.15191 -17.5421
ltibia 19.8683
lfoot -22.7473 18.6567
ltoes -57.0706
170
root -0.399209 18.7376 5.6983 3.35297 -11.4163 1.78821
lowerback 4.68438 -6.4595 7.10033
upperback -0.678978 -8.01831 5.37784
thorax -3.51671 -4.06823 2.28625
lowerneck -14.4452 -3.36889 -5.80893
upperneck 28.9551 -2.12493 -4.52436
head 11.9625 -2.24471 -1.02377
rclavicle 4.41302e-014 -5.56597e-014
rhumerus -39.359 22.7892 -79.854
rradius 109.372
rwrist -30.0642
rhand -8.97829 -30.9797
rfingers 7.12502
rthumb 16.9673 -60.2586
lclavicle 4.41302e-014 -5.56597e-014
lhumerus 45.438 -54.4848 56.273
lradius 72.1084
lwrist 37.231
lhand 4.09547 0.408601
lfingers 7.12502
lthumb 29.5068 28.084
rfemur 0 0 0
rtibia 0
rfoot 0 0
rtoes 0
lfemur -3.61693 2.54213 -17.3774
ltibia 19.9975
lfoot -22.424 18.1508
ltoes -57.1831
171
root -0.392621 18.7395 5.70205 3.43402 -11.1972 1.73052
lowerback 4.62413 -6.44673 7.57173
upperback -0.70702 -7.9699 5.59097
thorax -3.54622 -4.05074 2.24811
lowerneck -14.3732 -3.43415 -6.05136
upperneck 29.0628 -2.10409 -4.70238
head 11.9975 -2.28744 -1.04868
rclavicle -4.45278e-014 1.59028e-014
rhumerus -37.1331 22.3725 -79.9697
rradius 108.271
rwrist -28.5641
rhand -9.93538 -31.361
rfingers 7.12502
rthumb 16.0459 -60.7165
lclavicle -4.45278e-014 1.59028e-014
lhumerus 47.2872 -54.9555 54.1478
lradius 73.091
lwrist 37.4212
lhand 4.04605 0.689129
lfingers 7.12502
lthumb 29.4597 28.3729
rfemur 0 0 0
rtibia 0
rfoot 0 0
rtoes 0
lfemur -3.81865 2.95785 -17.2625
ltibia 20.1578
lfoot -22.1535 17.661
ltoes -57.2912
172
root -0.384128 18.7401 5.70099 3.46501 -10.9996 1.7741
lowerback 4.66789 -6.35761 7.76251
upperback -0.764206 -7.82129 5.87901
thorax -3.61312 -3.97989 2.44102
lowerneck -14.2005 -3.54547 -6.2823
upperneck 29.0157 -2.11839 -5.04445
head 11.95 -2.35977 -1.13554
rclavicle 6.95746e-014 1.27222e-014
rhumerus -34.6333 21.6739 -79.707
rradius 106.865
rwrist -27.3662
rhand -10.5599 -32.6175
rfingers 7.12502
rthumb 15.4444 -62.0204
lclavicle 6.95746e-014 1.27222e-014
lhumerus 49.0142 -55.4292 52.4509
lradius 74.0038
lwrist 37.2953
lhand 3.9776 0.875819
lfingers 7.12502
lthumb 29.3943 28.5711
rfemur 0 0 0
rtibia 0
rfoot 0 0
rtoes 0
lfemur -3.98935 3.29003 -17.274
ltibia 20.2971
lfoot -21.9446 17.2526
ltoes -57.3849
173
root -0.376863 18.74 5.70224 3.46928 -10.6876 1.83514
lowerback 4.66157 -6.2621 7.79802
upperback -0.832489 -7.67748 6.23697
thorax -3.63396 -3.90832 2.78329
lowerneck -13.9945 -3.70005 -6.56986
upperneck 28.9223 -2.17595 -5.42309
head 11.8796 -2.45987 -1.23045
rclavicle 5.48646e-014 -3.18055e-015
rhumerus -32.0225 20.8001 -79.2083
rradius 105.255
rwrist -26.6883
rhand -11.2782 -34.9641
rfingers 7.12502
rthumb 14.7525 -64.4191
lclavicle 5.48646e-014 -3.18055e-015
lhumerus 50.5325 -55.8878 51.2142
lradius 74.8642
lwrist 37.1657
lhand 3.70756 1.00979
lfingers 7.12502
lthumb 29.1365 28.75
rfemur 0 0 0
rtibia 0
rfoot 0 0
rtoes 0
lfemur -4.09303 3.5168 -17.2849
ltibia 20.3827
lfoot -21.7153 16.7532
ltoes -57.4472
174
root -0.37287 18.7393 5.70465 3.39359 -10.2793 1.92294
lowerback 4.56555 -6.19921 7.86866
upperback -0.809912 -7.59695 6.4772
thorax -3.53184 -3.86644 2.97281
lowerneck -13.9547 -3.85072 -6.72483
upperneck 28.9018 -2.26302 -5.73614
head 11.8684 -2.55338 -1.33301
rclavicle 1.98785e-015 -3.49861e-014
rhumerus -29.2188 19.7554 -78.7941
rradius 103.256
rwrist -26.3122
rhand -12.2017 -37.1076
rfingers 7.12502
rthumb 13.8626 -66.6256
lclavicle 1.98785e-015 -3.49861e-014
lhumerus 52.1483 -56.2767 49.7884
lradius 75.7267
lwrist 37.1889
lhand 3.45966 0.957101
lfingers 7.12502
lthumb 28.8997 28.7381
rfemur 0 0 0
rtibia 0
rfoot 0 0
rtoes 0
lfemur -4.10168 3.65177 -17.2973
ltibia 20.4463
lfoot -21.4821 16.2263
ltoes -57.5169
175
root -0.364062 18.7384 5.70491 3.28271 -9.86208 2.00794
lowerback 4.42782 -6.17094 8.10867
upperback -0.730954 -7.56545 6.59703
thorax -3.38656 -3.85035 2.94339
lowerneck -13.8833 -3.96637 -6.81695
upperneck 28.7745 -2.36172 -5.9193
head 11.8064 -2.62418 -1.39417
rclavicle 5.76476e-014 -1.59028e-014
rhumerus -26.2587 18.6389 -78.4864
rradius 100.874
rwrist -25.842
rhand -13.0579 -38.8574
rfingers 7.12502
rthumb 13.0374 -68.4299
lclavicle 5.76476e-014 -1.59028e-014
lhumerus 53.6579 -56.5715 48.3077
lradius 76.6106
lwrist 37.331
lhand 3.04631 0.937619
lfingers 7.12502
lthumb 28.5048 28.7855
rfemur 0 0 0
rtibia 0
rfoot 0 0
rtoes 0
lfemur -4.09941 3.7206 -17.3454
ltibia 20.5088
lfoot -21.2766 15.8333
ltoes -57.5694
